<svg width="102" height="23" viewBox="0 0 102 23" fill="none" xmlns="http://www.w3.org/2000/svg">
<g clip-path="url(#clip0_5936_21673)">
<path d="M13.376 9.77101C12.6049 10.3128 11.7491 10.1518 10.9245 10.0249C10.1557 9.90476 10.2158 9.20883 10.0754 8.66024C10.0643 8.61264 10.0509 8.5673 10.0353 8.52197C9.90605 7.71042 9.79016 6.89435 9.67428 6.07828C9.51828 4.97431 9.08816 3.99275 8.29701 3.19708C7.86021 2.75957 7.33872 2.51249 6.72586 2.44675C5.55586 2.31527 5.24385 2.56236 5.23048 3.75247C5.20374 6.03974 5.23271 8.32701 5.21488 10.612C5.21043 11.113 5.31517 11.6616 4.87614 12.0583C4.86945 12.0651 4.86054 12.0719 4.85385 12.0787C4.39699 11.9427 4.37917 11.5301 4.36802 11.1742C4.34574 10.4261 4.00031 10.1541 3.27379 10.102C2.26647 10.0317 1.91212 9.94329 1.77841 9.40605C1.71601 9.15669 1.70041 8.80759 1.69149 8.31795C1.65807 6.71527 1.79624 5.11259 1.60235 3.51671C1.60235 3.50538 1.60012 3.49404 1.60012 3.48497C1.50206 2.51475 0.626232 2.44448 0 2.08405V1.17956C2.80133 1.23397 5.62494 0.866736 8.39953 1.35411C11.2521 1.85736 12.9347 3.7366 13.3314 6.64499C13.4718 7.66962 13.6768 8.72598 13.376 9.77101Z" fill="black"/>
<path d="M13.376 9.77228C13.3604 14.1224 10.871 16.7021 6.56318 16.7792C4.37694 16.82 2.18847 16.786 0 16.786V15.8815C1.26806 15.4077 1.47755 14.4012 1.45526 13.1681C1.40401 10.3843 1.43075 7.60062 1.44635 4.81463C1.44858 4.36805 1.37726 3.89201 1.60012 3.48624C1.64915 3.3933 1.71378 3.30262 1.80069 3.21875C2.23973 4.44966 1.89652 5.72138 1.99904 6.97269C2.02355 7.26965 2.0035 7.56888 2.0035 7.86811C2.0035 9.71334 2.0035 9.75188 3.76408 9.75641C4.52179 9.75641 4.72014 10.0488 4.68225 10.7516C4.65997 11.1777 4.52402 11.6515 4.85831 12.0414C4.865 12.0482 4.86945 12.0528 4.87614 12.0596C5.41991 12.6603 5.15025 13.4038 5.19037 14.0839C5.26168 15.283 5.6294 15.5959 6.81055 15.3964C8.2881 15.1493 9.02799 14.1201 9.44473 12.794C9.77233 11.7513 9.84588 10.6541 9.94839 9.56599C9.97736 9.26223 9.93279 8.93354 10.0754 8.66151C10.1222 8.57537 10.1869 8.49376 10.2782 8.42122C10.3183 9.81988 11.2165 9.90149 12.2706 9.78135C12.6338 9.74054 13.006 9.77228 13.376 9.77228Z" fill="black"/>
<path d="M37.4158 0.5C37.6275 0.697218 37.6431 0.953375 37.6409 1.22313C37.6253 4.00232 37.6141 6.77924 37.6008 9.55842C36.979 10.3768 36.1522 10.1795 35.3833 9.94152C34.6791 9.7239 34.8797 9.03477 34.8596 8.49526C34.8017 6.81324 34.9688 5.12669 34.766 3.4492C34.5498 2.97996 34.6434 2.26363 33.8389 2.25456C33.6138 2.25456 33.3731 2.20469 33.3531 1.91453C33.3263 1.54049 33.6562 1.53369 33.8857 1.47476C34.5944 1.29114 35.312 1.13926 36.0252 0.966976C36.3728 0.883101 36.7472 0.849098 36.9701 0.502267H37.4158V0.5Z" fill="black"/>
<path d="M96.6768 9.76785C97.1938 10.6066 97.6975 10.5159 98.1922 9.74519C98.4091 9.85248 98.424 10.0958 98.2368 10.4751C97.8401 10.8832 97.6819 11.2504 98.0941 11.8148C98.941 12.9777 99.701 14.2041 100.497 15.4056C100.858 15.9519 101.281 16.3962 102.005 16.3305V16.7838H98.5131C98.4195 16.7158 98.3281 16.6478 98.2345 16.5798C99.4803 16.208 99.2173 15.63 98.7538 14.9885C98.0629 14.0341 97.6128 12.9052 96.7392 12.0823C96.4651 12.1345 96.3536 12.0211 96.3982 11.7423C96.3982 11.0192 95.8143 10.5907 95.5469 10.0013C95.6226 9.25101 95.8968 9.19207 96.679 9.76559L96.6768 9.76785Z" fill="black"/>
<path d="M25.6352 16.2048C25.604 16.0529 25.575 15.8943 25.39 15.9169C24.1331 16.0711 24.3537 15.0578 24.3248 14.4026C24.2378 12.5642 24.2534 10.7235 24.2312 8.88281C23.7632 8.94855 23.5247 9.52887 22.9898 9.45406C22.221 9.34299 21.617 9.69209 21.0688 10.184C19.3818 10.4424 17.7549 10.8845 16.3397 11.8978C15.3369 12.6164 14.9023 13.8563 15.2032 14.9603C15.5196 16.1187 16.547 16.9121 17.8106 17.0186C19.0051 17.1184 20.0882 16.8373 21.0198 16.0801C21.3496 15.8104 21.4655 15.8013 21.7641 16.1436C22.3525 16.8146 24.5008 17.1048 25.2964 16.7058C25.4992 16.606 25.6953 16.5018 25.6352 16.2048ZM21.0799 15.1961C20.4047 15.7582 19.6269 15.9827 18.8313 15.4953C18.1293 15.0623 17.9399 13.6523 18.4012 12.7093C18.9294 11.6348 19.9567 11.263 20.9641 10.8935C21.3607 10.7462 21.4588 11.0386 21.4499 11.399C21.4321 11.925 21.4454 12.4509 21.4454 13.0901C21.2471 13.7067 21.8221 14.5795 21.0799 15.1961Z" fill="black"/>
<path d="M44.7228 9.78109C45.2153 10.9621 45.7078 12.1454 46.2783 13.5124C46.7931 12.1613 47.2477 10.9712 47.7024 9.78109C48.0679 9.5136 48.4356 9.42972 48.8033 9.78109C47.6377 13.2789 46.3608 16.7404 44.9055 20.118C43.9918 22.2376 42.1889 22.9562 40.5063 22.2217C40.2723 22.1197 40.0383 21.995 39.8444 21.8318C39.3652 21.4283 39.0243 20.9386 39.236 20.2654C39.3608 19.8732 39.6527 19.6851 40.0828 19.676C40.7648 19.6601 41.0211 20.0908 41.2662 20.6462C41.7721 21.7842 42.4563 21.8318 43.2073 20.823C44.0519 19.6896 44.3194 18.3136 44.7673 17.0124C44.9166 16.5794 44.6492 16.2077 44.4843 15.8404C43.6129 13.9023 42.7259 11.9732 41.8434 10.0395C42.1265 9.10783 42.9065 9.52493 43.4859 9.43879C43.9227 9.37532 44.355 9.48866 44.7183 9.78109H44.7228Z" fill="black"/>
<path d="M34.7652 3.44922C35.2086 4.764 34.8498 6.12186 34.9568 7.45478C34.988 7.82882 34.9947 8.20965 34.9568 8.58142C34.8498 9.55391 35.3112 9.86673 36.1981 9.78059C36.6728 9.73299 37.1653 9.84633 37.6021 9.56071C37.6177 11.2495 37.6423 12.9383 37.64 14.6249C37.64 15.2528 37.6044 15.8558 38.4245 15.9873C38.6674 16.0258 38.8034 16.189 38.7855 16.4633C38.7588 16.885 38.4468 16.7762 38.215 16.7784C36.7731 16.7875 35.3312 16.7898 33.8893 16.7852C33.6865 16.7852 33.4258 16.8646 33.3589 16.5472C33.2921 16.223 33.4503 16.0576 33.7512 15.9964C34.8164 15.781 34.7139 14.9173 34.7206 14.1466C34.7451 10.5808 34.754 7.01501 34.7674 3.44922H34.7652Z" fill="black"/>
<path d="M30.3004 6.18486C31.1205 5.81762 30.9489 6.46595 30.9533 6.86945C30.9689 9.38568 30.9645 11.9042 30.9689 14.4204C30.9689 15.1345 30.8753 15.9029 31.9027 16.0027C32.1813 16.0299 32.2437 16.2588 32.2192 16.5014C32.1857 16.8256 31.925 16.7825 31.7177 16.7825C30.2001 16.7848 28.6846 16.7802 27.167 16.7802C26.9396 16.7802 26.7279 16.8029 26.719 16.4606C26.7123 16.1795 26.8304 16.0526 27.089 16.0095C28.0272 15.8553 28.0517 15.1413 28.0562 14.3977C28.0651 12.6318 28.0829 10.8682 28.0985 9.10232C30.2536 9.86853 30.6592 9.52623 30.4207 7.16188C30.3873 6.83318 30.2045 6.52489 30.3004 6.18032V6.18486Z" fill="black"/>
<path d="M53.4819 9.77735C53.4685 7.85731 53.4507 5.93953 53.444 4.01949C53.4395 2.81956 52.9269 2.04051 51.9062 1.68234C52.1536 1.32418 52.5169 1.48966 52.8177 1.48739C55.1511 1.46926 57.4866 1.51686 59.8177 1.45339C60.5844 1.43299 60.8785 1.70728 60.9632 2.41681C61.0212 2.89966 61.1571 3.37343 61.2284 3.85628C61.2596 4.06256 61.6229 4.37086 61.1705 4.47513C60.7872 4.56127 60.8451 4.14644 60.7693 3.92655C60.3518 2.71453 59.5027 2.10323 58.2221 2.09265C57.4443 2.08812 56.6598 2.14932 55.8887 2.07678C54.9683 1.99064 54.7477 2.39188 54.7789 3.25329C54.8324 4.79476 54.8212 6.34077 54.7566 7.88224C54.7299 8.51697 54.946 8.69605 55.5032 8.64391C55.6882 8.62804 55.8731 8.64164 56.0581 8.64164C57.6033 8.64164 58.7168 7.97367 59.3987 6.63773V9.78868C59.0957 10.1219 59.4188 10.6864 58.9798 10.9697C58.9218 10.6456 58.855 10.3214 58.8082 9.99497C58.748 9.58693 58.5831 9.2809 58.1262 9.27864C57.139 9.27184 56.1539 9.27864 55.1667 9.27864C54.8324 9.27864 54.7366 9.49172 54.7254 9.78415C54.3109 10.14 53.8941 10.1083 53.4819 9.78188V9.77735Z" fill="black"/>
<path d="M72.1136 9.7804C72.5348 11.1564 72.4211 12.5414 72.0423 13.888C71.4472 16.0098 69.5507 17.1885 67.2308 16.9755C64.8239 16.7533 63.3241 15.2912 63.07 12.7795C62.9608 11.7118 62.836 10.6055 63.3062 9.56505C63.8456 9.32702 64.2734 9.43357 64.5654 9.97762C64.7548 10.8322 64.6456 11.6982 64.6657 12.5573C64.688 13.4913 64.9532 14.3323 65.5081 15.0713C66.7383 16.7034 69.0493 16.5334 70.0455 14.7358C70.7876 13.4006 70.7608 11.9271 70.7586 10.4582C71.0818 9.35423 71.1798 9.30435 72.1158 9.7804H72.1136Z" fill="black"/>
<path d="M24.2327 8.88225C24.0655 9.58951 23.6688 9.93408 22.9223 9.7754C22.2492 9.63259 21.6698 9.97035 21.0703 10.1812C21.6676 9.26762 21.4781 8.34727 21.0681 7.44505C20.7605 6.76499 20.1254 6.8058 19.5326 6.83073C18.6991 6.86473 18.3002 7.46999 18.055 8.15685C17.8611 8.69637 17.5803 9.07267 17.0432 9.24722C16.6087 9.38776 16.2254 9.23815 15.92 8.95479C15.5902 8.65103 15.5568 8.26113 15.7217 7.82135C16.0827 6.87153 16.8739 6.46803 17.7408 6.25495C19.1114 5.91718 20.5087 5.80384 21.9105 6.13933C23.3078 6.47256 24.0611 7.35438 24.2371 8.88225H24.2327Z" fill="black"/>
<path d="M88.8593 16.5535C86.0735 17.7074 83.4304 16.2861 82.8287 13.3074C82.5903 12.1263 82.4655 10.9498 82.8844 9.78013C83.3146 9.50584 83.7313 9.51491 84.1347 9.83907C84.4132 10.2426 84.8144 10.3605 85.2802 10.3605C86.3031 10.3605 87.326 10.3401 88.3467 10.3673C88.9685 10.3854 89.3986 10.1496 89.6571 9.57838C90.105 9.29502 90.475 9.47864 90.8271 9.78013C91.2505 11.1788 91.2439 11.1924 89.8866 11.1947C88.1818 11.1947 86.4769 11.2219 84.7743 11.1811C84.1458 11.1675 83.9608 11.3579 83.9519 12.0017C83.9096 15.1073 85.5164 16.6148 88.6008 16.2951C88.8437 16.2181 88.9061 16.3291 88.8593 16.5513V16.5535Z" fill="black"/>
<path d="M44.7199 9.77973C43.7639 9.89761 42.761 9.47824 41.8428 10.0359C41.5197 9.37396 41.2099 8.70524 40.8712 8.05011C40.7174 7.75542 40.5391 7.46299 40.3185 7.22043C40.0889 6.96654 39.3847 7.08442 39.6543 6.4565C39.8661 5.96005 40.3809 6.22754 40.753 6.21621C41.8629 6.18447 42.9727 6.20261 44.0825 6.20941C44.3567 6.20941 44.7088 6.08473 44.7667 6.54717C44.8068 6.86454 44.6753 7.00735 44.3477 7.05949C43.8196 7.14563 43.8508 7.49246 44.0179 7.90276C44.2675 8.52162 44.4881 9.15181 44.7199 9.77747V9.77973Z" fill="black"/>
<path d="M53.4838 9.77734C53.8983 9.77734 54.3128 9.77734 54.7274 9.77961C54.7474 11.3574 54.7786 12.9351 54.7875 14.5128C54.7964 16.0906 54.7875 16.0906 56.3654 16.3082C56.5058 16.3263 56.6573 16.3127 56.7687 16.6006H51.7344C52.3049 16.111 53.1027 16.4533 53.3323 15.7438C53.5217 15.1566 53.4326 14.5491 53.4437 13.9507C53.466 12.5588 53.4727 11.1692 53.4838 9.77734Z" fill="black"/>
<path d="M76.6121 9.54727C76.6366 11.0525 76.67 12.5554 76.6812 14.0606C76.6945 15.9965 76.6856 15.9965 78.5398 16.6426H74.1094C75.4866 15.9671 75.48 15.9671 75.4889 14.4097C75.4978 12.7912 75.5178 11.1726 75.5357 9.55407C75.8945 9.23671 76.2533 9.26618 76.6143 9.54727H76.6121Z" fill="black"/>
<path d="M30.3009 6.18555C30.6686 6.65026 30.9294 9.18462 30.6508 9.56772C30.2875 10.0642 28.5114 9.74454 28.0991 9.10755C27.981 8.47509 28.0968 7.66355 27.065 7.73609C26.8466 7.75196 26.7419 7.62954 26.7218 7.40512C26.6862 7.01522 26.9692 7.02882 27.2166 6.96762C28.2462 6.71373 29.2735 6.4485 30.3009 6.18555Z" fill="black"/>
<path d="M31.0048 2.95314C31.0159 4.0299 30.3206 4.80744 29.3534 4.80064C28.5021 4.79384 27.6731 3.9347 27.6641 3.05061C27.6552 2.128 28.4241 1.30966 29.3244 1.28019C30.285 1.25072 30.9936 1.95572 31.0048 2.95314Z" fill="black"/>
<path d="M72.1065 9.77975C71.5025 9.64601 70.9587 9.60974 71.0055 10.5029C70.4685 10.3623 70.5777 9.86816 70.4907 9.49866C70.1386 8.00479 69.2004 7.04364 67.9457 6.91896C66.5194 6.77615 65.5589 7.42674 64.9104 8.98182C64.7833 9.28784 64.7365 9.64374 64.3644 9.77069C64.0078 9.70268 63.6534 9.63467 63.2969 9.56667C63.7626 7.49021 65.4051 6.18903 67.607 6.15503C69.9202 6.11876 71.556 7.43808 72.1065 9.78202V9.77975Z" fill="black"/>
<path d="M83.9704 9.77158C83.6093 9.84865 83.2461 9.90305 82.8828 9.78064C83.2706 7.63165 84.9866 6.11964 87.0035 6.14685C88.9891 6.17405 90.4422 7.55684 90.8255 9.78064C90.4511 9.79198 90.0878 9.75571 89.7624 9.54715C89.2476 9.3658 89.2878 8.83536 89.0983 8.44999C88.6816 7.60218 88.1378 6.90851 87.1082 6.92665C86.0741 6.94478 85.2875 7.40496 84.7927 8.37065C84.5476 8.84896 84.5632 9.49728 83.9704 9.76704V9.77158Z" fill="black"/>
<path d="M48.8041 9.77922C48.4364 9.77922 48.0709 9.77922 47.7032 9.77922C47.9104 9.1853 48.1556 8.60045 48.3116 7.99293C48.4074 7.61436 48.6882 7.06577 47.897 7.02044C47.5917 7.0023 47.6029 6.73481 47.6296 6.51492C47.6541 6.29504 47.8168 6.21343 48.0218 6.21343C48.8308 6.21343 49.6443 6.16356 50.4488 6.2293C50.9502 6.2701 50.8833 6.89123 50.6583 6.95243C49.3768 7.3038 49.5417 8.58231 49.0136 9.40292C48.9356 9.52306 48.8732 9.65228 48.8019 9.77922H48.8041Z" fill="black"/>
<path d="M96.6732 9.76722C96.2743 9.74002 95.784 9.25718 95.5411 10.003C95.1823 9.44306 94.8302 8.88087 94.4647 8.32776C94.0101 7.63863 93.6624 6.84296 92.6172 6.73868C92.6662 6.63894 92.7175 6.5392 92.7665 6.43945H96.0715C94.9416 6.95857 95.3606 7.55929 95.813 8.22122C96.145 8.70406 96.3902 9.24811 96.6732 9.76495V9.76722Z" fill="black"/>
<path d="M76.6101 9.54719C76.2513 9.54719 75.8903 9.55173 75.5315 9.55399C75.5181 9.32957 75.4891 9.10515 75.4936 8.88073C75.5092 8.03292 75.4713 7.23725 74.2812 7.24632C74.981 6.98336 75.6808 6.71814 76.492 6.41211C76.541 6.85642 76.5901 7.28032 76.6369 7.70423C76.7037 7.94452 77.2185 7.77903 77.0759 8.20747C76.6569 8.5611 76.6681 9.06662 76.6123 9.54946L76.6101 9.54719Z" fill="black"/>
<path d="M78.3621 6.57503C79.4631 5.96751 80.4013 6.08538 81.003 6.90146C81.3061 7.31403 81.4019 7.76514 80.9473 8.06663C80.5261 8.34772 80.252 7.96235 80.1205 7.61099C79.8464 6.87425 79.3628 6.66117 78.6496 6.87652C78.4023 6.92413 78.3198 6.81078 78.3621 6.57503Z" fill="black"/>
<path d="M99.3241 8.18552C99.752 7.60746 100.158 7.03394 98.8984 6.63044C99.9347 6.28361 100.793 6.47856 101.724 6.56243C100.657 6.9342 100.323 7.99737 99.5893 8.67063C99.1837 8.68649 99.1792 8.47794 99.3241 8.18552Z" fill="black"/>
<path d="M96.3933 11.7441C96.507 11.8575 96.6207 11.9708 96.7343 12.0842C95.9008 13.2924 95.0651 14.5007 94.2316 15.7066C93.9998 15.6001 93.9664 15.3711 93.9062 15.1603C94.6439 13.9521 95.4975 12.8322 96.3956 11.7441H96.3933Z" fill="black"/>
<path d="M93.901 15.1602C94.135 15.2644 94.1974 15.4753 94.2263 15.7065C94.1461 16.3684 94.8303 16.212 95.198 16.5951C94.1751 16.8603 93.2435 16.6676 91.9844 16.7538C92.8624 16.187 93.4708 15.7699 93.8987 15.1602H93.901Z" fill="black"/>
<path d="M88.8601 16.5546C88.7732 16.4685 88.6885 16.3823 88.6016 16.2985C89.4885 15.8746 90.1504 15.1469 90.9148 14.5371C90.4869 15.4892 89.961 16.3234 88.8601 16.5546Z" fill="black"/>
<path d="M99.3241 8.18555C99.333 8.39183 99.3798 8.57545 99.5893 8.67066C99.1948 9.31672 98.8204 9.97864 98.2321 10.4728C98.1318 10.2348 98.4794 9.96731 98.1875 9.74289C98.5218 9.18977 98.7937 8.59132 99.3241 8.18555Z" fill="black"/>
<path d="M78.3645 6.57453C78.4603 6.67427 78.5561 6.77628 78.6519 6.87603C78.126 7.31807 77.6001 7.76011 77.0719 8.20215C77.0162 7.95279 76.6284 8.00266 76.6329 7.6989C77.4507 7.7057 77.6045 6.65841 78.3645 6.57227V6.57453Z" fill="black"/>
<path d="M58.9844 10.9662C59.1849 10.5944 58.7348 9.98464 59.4033 9.78516C59.4189 10.2227 59.5527 10.701 59.4212 11.0863C59.2563 11.5737 59.0334 11.4014 58.9844 10.9662Z" fill="black"/>
</g>
<defs>
<clipPath id="clip0_5936_21673">
<rect width="102" height="22" fill="white" transform="translate(0 0.5)"/>
</clipPath>
</defs>
</svg>
