<svg width="106" height="16" viewBox="0 0 106 16" fill="none" xmlns="http://www.w3.org/2000/svg">
<g id="Simplification" clip-path="url(#clip0_5936_21537)">
<path id="Vector" d="M41.9104 0.5C42.6256 0.566504 42.6256 0.566504 43.4511 0.8C43.9312 1.37803 43.9312 1.37803 44.3346 2.13594C44.4857 2.41317 44.6367 2.6904 44.7923 2.97603C44.9471 3.27269 45.1019 3.56935 45.2614 3.875C45.4226 4.1736 45.5838 4.47219 45.7498 4.77983C46.0715 5.37627 46.3911 5.97377 46.7086 6.57236C47.2781 7.64313 47.8669 8.70312 48.4584 9.7625C48.7411 10.2749 49.0236 10.7873 49.3058 11.3C50.657 9.85202 51.4675 8.13651 52.3679 6.40625C54.147 3.00085 54.147 3.00085 55.0461 1.48086C55.1579 1.28975 55.2698 1.09864 55.385 0.901733C55.5143 0.769161 55.6435 0.636589 55.7767 0.5C56.1835 0.5 56.5902 0.5 57.0093 0.5C57.494 2.28661 57.8528 4.06736 58.1576 5.89062C58.2046 6.1669 58.2516 6.44317 58.3 6.72782C58.4485 7.60173 58.5955 8.47586 58.7425 9.35C58.8436 9.94611 58.9447 10.5422 59.0459 11.1383C59.2925 12.592 59.5378 14.046 59.7825 15.5C58.8673 15.5 57.9522 15.5 57.0093 15.5C56.5399 13.771 56.194 12.0538 55.9115 10.2875C55.7033 8.64594 55.7033 8.64594 55.1604 7.1C53.5335 9.872 51.9065 12.644 50.2302 15.5C48.6895 15.2 48.6895 15.2 48.2611 14.7454C48.1518 14.5524 48.0426 14.3594 47.93 14.1605C47.8052 13.9465 47.6804 13.7324 47.5519 13.5118C47.4252 13.2831 47.2986 13.0544 47.1681 12.8188C46.8997 12.3539 46.6313 11.889 46.3628 11.4242C46.2343 11.1977 46.1057 10.9712 45.9733 10.7378C45.498 9.90768 44.9974 9.09374 44.4911 8.28125C44.3473 8.04883 44.2035 7.81641 44.0554 7.57695C43.9577 7.41956 43.8599 7.26216 43.7593 7.1C43.2128 9.89514 42.6831 12.6906 42.2186 15.5C41.3034 15.5 40.3882 15.5 39.4453 15.5C39.6475 12.7639 40.0788 10.0879 40.5497 7.38623C40.679 6.64341 40.8062 5.90025 40.933 5.15703C41.0148 4.68279 41.0966 4.20857 41.1786 3.73438C41.2165 3.51314 41.2544 3.2919 41.2934 3.06395C41.4482 2.18024 41.6187 1.35211 41.9104 0.5Z" fill="black"/>
<path id="Vector_2" d="M79.8047 0.500279C81.0758 0.475529 82.3468 0.450779 83.6564 0.425279C84.0523 0.414354 84.4481 0.40343 84.8559 0.392174C87.0263 0.371792 88.4493 0.539187 90.2814 1.70028C91.18 2.66261 91.5876 3.41683 91.6681 4.70028C91.5958 5.96599 91.1474 6.74326 90.2814 7.70028C89.4665 8.0495 89.4665 8.0495 88.7407 8.30028C89.1579 8.88785 89.5752 9.47534 89.9926 10.0628C90.1796 10.3263 90.1796 10.3263 90.3704 10.5951C91.3361 11.9541 92.3128 13.3052 93.2966 14.6518C93.671 15.2003 93.671 15.2003 93.671 15.5003C92.4961 15.6766 91.4517 15.7277 90.2814 15.5003C89.2631 14.7136 88.6255 13.7488 87.9319 12.6878C87.744 12.4209 87.5561 12.1541 87.3625 11.8792C86.1272 10.1113 86.1272 10.1113 85.6593 9.20028C84.6425 9.10128 83.6256 9.00228 82.5779 8.90028C82.5779 11.0783 82.5779 13.2563 82.5779 15.5003C81.6628 15.5003 80.7476 15.5003 79.8047 15.5003C79.8047 10.5503 79.8047 5.60028 79.8047 0.500279ZM82.5779 2.90028C82.5779 4.18728 82.5779 5.47428 82.5779 6.80028C85.4298 6.94828 85.4298 6.94828 88.1245 6.20028C88.8356 5.35289 88.8356 5.35289 88.7022 4.38153C88.5298 3.49813 88.5298 3.49813 87.9487 3.14754C86.9048 2.80277 85.8997 2.83675 84.812 2.86278C84.4896 2.86684 84.4896 2.86684 84.1608 2.87098C83.6331 2.87802 83.1055 2.88878 82.5779 2.90028Z" fill="black"/>
<path id="Vector_3" d="M27.1172 0.5C30.6762 0.5 34.2352 0.5 37.9021 0.5C37.9021 1.292 37.9021 2.084 37.9021 2.9C35.2582 2.9 32.6144 2.9 29.8904 2.9C29.8904 4.187 29.8904 5.474 29.8904 6.8C32.5343 6.8 35.1781 6.8 37.9021 6.8C37.9021 7.592 37.9021 8.384 37.9021 9.2C35.2582 9.2 32.6144 9.2 29.8904 9.2C29.8904 10.487 29.8904 11.774 29.8904 13.1C30.443 13.0965 30.9955 13.093 31.5647 13.0895C32.2841 13.0866 33.0035 13.0839 33.7229 13.0813C34.0878 13.0787 34.4526 13.0762 34.8285 13.0736C35.1751 13.0727 35.5216 13.0717 35.8787 13.0707C36.1998 13.0691 36.5209 13.0676 36.8518 13.0659C37.5939 13.1 37.5939 13.1 37.9021 13.4C37.9021 14.093 37.9021 14.786 37.9021 15.5C34.3431 15.5 30.784 15.5 27.1172 15.5C27.1172 10.55 27.1172 5.6 27.1172 0.5Z" fill="black"/>
<path id="Vector_4" d="M0 0.500736C1.32827 0.445048 2.65655 0.389361 4.02507 0.331986C4.64714 0.295115 4.64714 0.295115 5.28178 0.257498C7.94974 0.20338 7.94974 0.20338 9.0695 1.10323C10.4767 2.84541 10.4767 2.84541 10.4767 3.50074C8.13797 3.50074 5.79919 3.50074 3.38953 3.50074C3.38953 4.49074 3.38953 5.48074 3.38953 6.50074C3.67406 6.49445 3.95859 6.48817 4.25174 6.48169C5.30784 6.46124 6.36372 6.44619 7.41995 6.43482C7.87698 6.42878 8.33398 6.4206 8.79093 6.41021C9.44802 6.39564 10.1048 6.38884 10.762 6.38355C11.1574 6.37726 11.5527 6.37098 11.96 6.3645C12.9419 6.50074 12.9419 6.50074 13.5548 7.05767C13.8663 7.70074 13.8663 7.70074 13.6352 8.50698C13.25 9.20074 13.25 9.20074 12.9419 9.50074C12.2358 9.52711 11.5288 9.53282 10.8222 9.53003C10.5048 9.5294 10.5048 9.5294 10.181 9.52875C9.50281 9.52706 8.82464 9.5233 8.14644 9.51948C7.68764 9.51798 7.22884 9.51661 6.77004 9.51538C5.64318 9.51232 4.51639 9.50645 3.38953 9.50074C3.38953 11.4807 3.38953 13.4607 3.38953 15.5007C2.27099 15.5007 1.15244 15.5007 0 15.5007C0 10.5507 0 5.60074 0 0.500736Z" fill="black"/>
<path id="Vector_5" d="M95.2188 0.500745C96.9411 0.494558 98.6634 0.48837 100.438 0.481995C100.982 0.479264 101.526 0.476533 102.087 0.473719C102.516 0.472843 102.945 0.472078 103.374 0.471448C103.711 0.469146 103.711 0.469146 104.054 0.466797C104.602 0.466704 105.149 0.48206 105.695 0.500745C106.004 0.800745 106.004 0.800745 106.042 1.70075C106.004 2.60075 106.004 2.60074 105.695 2.90074C105.124 2.92696 104.552 2.93284 103.98 2.93004C103.634 2.92908 103.287 2.92811 102.93 2.92711C102.565 2.9246 102.2 2.92208 101.824 2.9195C101.458 2.91814 101.092 2.91679 100.715 2.91539C99.8075 2.91184 98.8998 2.90646 97.992 2.90074C97.992 4.18775 97.992 5.47475 97.992 6.80075C98.5445 6.79727 99.097 6.79378 99.6663 6.7902C100.386 6.78739 101.105 6.78466 101.824 6.782C102.189 6.77948 102.554 6.77697 102.93 6.77438C103.277 6.77341 103.623 6.77244 103.98 6.77145C104.301 6.76988 104.623 6.76831 104.953 6.76669C105.695 6.80075 105.695 6.80075 106.004 7.10075C106.042 8.00075 106.042 8.00075 106.004 8.90075C105.695 9.20075 105.695 9.20075 104.953 9.2348C104.632 9.23323 104.311 9.23166 103.98 9.23004C103.634 9.22908 103.287 9.22811 102.93 9.22711C102.565 9.2246 102.2 9.22208 101.824 9.2195C101.458 9.21814 101.092 9.21679 100.715 9.21539C99.8075 9.21184 98.8998 9.20646 97.992 9.20075C97.992 10.4877 97.992 11.7747 97.992 13.1007C100.534 13.1007 103.076 13.1007 105.695 13.1007C105.695 13.8927 105.695 14.6847 105.695 15.5007C102.238 15.5007 98.7808 15.5007 95.2188 15.5007C95.2188 10.5507 95.2188 5.60075 95.2188 0.500745Z" fill="black"/>
<path id="Vector_6" d="M61.3203 0.5C70.1723 0.5 70.1723 0.5 72.1052 2.225C72.8079 3.3367 73.0296 3.99587 73.0296 5.3C72.6345 6.63499 72.3045 7.2464 71.1808 8.1125C70.0982 8.68342 69.3098 8.93818 68.0958 8.9293C67.7802 8.92817 67.7802 8.92817 67.4582 8.92703C67.1931 8.9243 66.9281 8.92156 66.655 8.91875C65.8097 8.91256 64.9644 8.90637 64.0936 8.9C64.0936 11.078 64.0936 13.256 64.0936 15.5C63.1784 15.5 62.2632 15.5 61.3203 15.5C61.3203 10.55 61.3203 5.6 61.3203 0.5ZM64.0936 2.9C64.0853 3.49373 64.0793 4.08749 64.0743 4.68125C64.0707 5.01189 64.0672 5.34254 64.0635 5.6832C63.9972 6.47434 63.9972 6.47434 64.4017 6.8C66.4211 6.97688 68.2068 6.96882 69.9482 5.9C70.3421 5.02028 70.339 4.6228 70.006 3.725C69.6727 3.15478 69.6727 3.15478 69.0238 2.9C68.1864 2.87845 67.3572 2.8721 66.5202 2.88125C66.1716 2.88328 66.1716 2.88328 65.816 2.88535C65.2419 2.88889 64.6677 2.89427 64.0936 2.9Z" fill="black"/>
<path id="Vector_7" d="M9.85938 0.499864C13.226 0.0373804 13.226 0.0373804 14.648 1.06632C15.3473 1.8642 15.9494 2.68039 16.5422 3.55611C16.7541 3.84403 16.966 4.13194 17.1843 4.42857C19.0855 7.05334 19.0855 7.05334 19.4117 8.29986C19.1052 8.96959 19.1052 8.96959 18.5715 9.64049C18.3805 9.88605 18.1894 10.1316 17.9926 10.3846C17.7872 10.6372 17.5819 10.8897 17.3703 11.1499C17.073 11.5287 17.073 11.5287 16.7696 11.9151C16.386 12.4021 15.9982 12.886 15.6057 13.3662C15.0572 14.0336 15.0572 14.0336 14.4694 14.9221C13.8652 15.4999 13.8652 15.4999 12.8686 15.6463C12.3323 15.6202 12.3323 15.6202 11.7852 15.5936C11.4246 15.5801 11.0639 15.5665 10.6923 15.5526C10.28 15.5265 10.28 15.5265 9.85938 15.4999C11.4379 12.9605 13.211 10.6246 15.0977 8.29986C14.6681 7.40716 14.1669 6.63673 13.5667 5.84361C13.3907 5.60926 13.2147 5.37491 13.0335 5.13346C12.8503 4.89137 12.6672 4.64929 12.4786 4.39986C12.115 3.91922 11.7523 3.43799 11.3904 2.95611C11.2298 2.7438 11.0691 2.5315 10.9036 2.31275C10.4942 1.72647 10.1679 1.14102 9.85938 0.499864Z" fill="black"/>
<path id="Vector_8" d="M74.875 0.5C75.7902 0.5 76.7053 0.5 77.6483 0.5C77.6483 5.45 77.6483 10.4 77.6483 15.5C76.7331 15.5 75.8179 15.5 74.875 15.5C74.875 10.55 74.875 5.6 74.875 0.5Z" fill="black"/>
<path id="Vector_9" d="M20.6478 8.30078C21.5949 9.4453 22.5213 10.6037 23.4403 11.7695C23.574 11.9387 23.7077 12.1079 23.8454 12.2822C24.2182 12.7546 24.59 13.2277 24.9618 13.7008C25.1457 13.9262 25.3296 14.1517 25.5191 14.384C25.8862 14.9008 25.8862 14.9008 25.8862 15.5008C24.4693 15.7732 23.2878 15.8505 21.8804 15.5008C21.1317 14.9222 20.5975 14.2537 20.0508 13.4945C19.9144 13.3071 19.778 13.1197 19.6375 12.9266C19.0548 12.0329 18.749 11.5216 18.988 10.4664C19.4854 9.69151 20.0372 8.9943 20.6478 8.30078Z" fill="black"/>
<path id="Vector_10" d="M24.0545 0.275528C24.6664 0.332848 25.2778 0.401993 25.8841 0.500528C24.9628 2.15722 23.9002 3.63671 22.7257 5.13178C22.5549 5.35124 22.3841 5.5707 22.2081 5.79682C21.7911 6.33223 21.373 6.86677 20.9539 7.40053C19.9371 6.9353 19.3455 6.58447 18.7969 5.60053C19.0428 2.79599 21.142 0.253835 24.0545 0.275528Z" fill="black"/>
</g>
<defs>
<clipPath id="clip0_5936_21537">
<rect width="106" height="15" fill="white" transform="translate(0 0.5)"/>
</clipPath>
</defs>
</svg>
