<svg width="54" height="18" viewBox="0 0 54 18" fill="none" xmlns="http://www.w3.org/2000/svg">
<g id="Simplification" clip-path="url(#clip0_5936_21485)">
<path id="Vector" d="M20.5 0C21.8528 0 23.2057 0 24.5995 0C24.8956 0.285618 24.8745 0.847802 24.9386 1.24089C24.9579 1.35662 24.9772 1.47235 24.9971 1.59159C25.0611 1.97593 25.1244 2.36039 25.1876 2.74485C25.2317 3.01065 25.2758 3.27644 25.3201 3.54222C25.4365 4.24316 25.5523 4.9442 25.668 5.64526C25.786 6.36007 25.9047 7.07479 26.0233 7.78951C26.2561 9.19291 26.4882 10.5964 26.7199 12C27.2088 9.12163 27.6677 6.24031 28.1026 3.35383C28.1752 2.87291 28.2482 2.39207 28.3213 1.91122C28.343 1.76552 28.3648 1.61983 28.3873 1.46971C28.4178 1.26909 28.4178 1.26909 28.4489 1.06441C28.4666 0.947253 28.4842 0.830098 28.5024 0.709392C28.5576 0.409091 28.5576 0.409091 28.699 0C30.0984 0 31.4979 0 32.9398 0C32.9398 5.94 32.9398 11.88 32.9398 18C31.9602 18 30.9805 18 29.9712 18C29.9246 14.31 29.8779 10.62 29.8298 6.81818C29.4829 9.17159 29.4829 9.17159 29.1364 11.5251C28.8177 13.6858 28.4826 15.8437 28.1335 18C27.1539 18 26.1742 18 25.1649 18C24.5414 14.4108 23.9318 10.8195 23.3272 7.22727C23.2806 10.7823 23.2339 14.3373 23.1859 18C22.2995 18 21.4132 18 20.5 18C20.5 12.06 20.5 6.12 20.5 0Z" fill="black"/>
<path id="Vector_2" d="M36.7569 0C38.2497 0 39.7425 0 41.2805 0C41.3661 0.52207 41.4518 1.04414 41.54 1.58203C41.6123 2.02227 41.6846 2.46251 41.7569 2.90275C41.8358 3.38286 41.9147 3.86297 41.9934 4.3431C42.342 6.46733 42.6927 8.59119 43.0525 10.7137C43.1023 11.0078 43.152 11.3019 43.2017 11.596C43.2342 11.7881 43.2666 11.9802 43.2991 12.1723C43.3149 12.266 43.3308 12.3597 43.3471 12.4563C43.441 13.0117 43.5357 13.567 43.6308 14.1222C43.7039 14.5497 43.7759 14.9773 43.8482 15.4048C43.8746 15.5576 43.901 15.7103 43.9283 15.8677C43.9521 16.0095 43.9759 16.1513 44.0004 16.2973C44.0212 16.4195 44.0421 16.5416 44.0635 16.6675C44.1151 17.1091 44.1077 17.5556 44.1077 18C43.1281 18 42.1484 18 41.1391 18C41.0721 17.6344 41.005 17.2688 40.9359 16.892C40.9151 16.7785 40.8942 16.6649 40.8727 16.5479C40.8558 16.4558 40.839 16.3637 40.8216 16.2688C40.8046 16.176 40.7875 16.0832 40.77 15.9875C40.7027 15.6132 40.6384 15.2384 40.5737 14.8636C39.4541 14.8186 38.3345 14.7736 37.181 14.7273C37.0474 15.6512 37.0474 15.6512 36.9146 16.5753C36.8977 16.6905 36.8809 16.8058 36.8635 16.9245C36.8465 17.0424 36.8294 17.1602 36.8119 17.2816C36.7569 17.5909 36.7569 17.5909 36.6156 18C35.7292 18 34.8429 18 33.9297 18C33.9297 16.9261 33.9297 16.9261 34.0054 16.4786C34.0223 16.3769 34.0391 16.2752 34.0564 16.1704C34.0751 16.0621 34.0938 15.9538 34.1131 15.8422C34.1327 15.7254 34.1522 15.6085 34.1724 15.4882C34.2371 15.1025 34.3029 14.717 34.3687 14.3315C34.4146 14.059 34.4604 13.7865 34.5062 13.514C34.6273 12.7944 34.7492 12.0749 34.8714 11.3555C35.0642 10.2192 35.2555 9.08279 35.4471 7.94639C35.5169 7.53251 35.5868 7.11864 35.6567 6.70478C36.0338 4.47134 36.3981 2.23624 36.7569 0ZM38.736 3.81818C38.5737 4.84673 38.4128 5.87547 38.2528 6.90434C38.1982 7.25408 38.1434 7.60378 38.0882 7.95344C38.0089 8.45701 37.9306 8.96073 37.8525 9.46449C37.8277 9.61993 37.803 9.77537 37.7775 9.93552C37.7549 10.0829 37.7322 10.2302 37.7089 10.382C37.6888 10.5104 37.6687 10.6388 37.648 10.7711C37.5959 11.2693 37.6051 11.772 37.6051 12.2727C38.4448 12.2727 39.2845 12.2727 40.1496 12.2727C40.1496 11.598 40.1495 11.0444 40.0503 10.3967C40.0285 10.2525 40.0068 10.1083 39.9844 9.95981C39.9606 9.80778 39.9367 9.65575 39.9121 9.49911C39.8877 9.34056 39.8633 9.18201 39.8381 9.01866C39.7865 8.68544 39.7344 8.35228 39.6819 8.01919C39.6016 7.50711 39.5235 6.99475 39.4455 6.48233C39.3951 6.15836 39.3444 5.83441 39.2937 5.51048C39.2704 5.35651 39.2471 5.20255 39.2231 5.04393C39.2005 4.90276 39.1779 4.7616 39.1546 4.61616C39.1254 4.42896 39.1254 4.42896 39.0956 4.23798C39.0702 4.14445 39.0448 4.05091 39.0187 3.95455C38.9254 3.90955 38.8321 3.86455 38.736 3.81818Z" fill="black"/>
<path id="Vector_3" d="M52.5927 0.736119C53.4374 1.44977 53.9428 2.42422 54.0283 3.50354C54.0585 4.38215 54.0356 5.25768 53.9992 6.1358C53.0662 6.1358 52.1332 6.1358 51.1719 6.1358C51.1278 4.95966 51.1278 4.95966 51.1171 4.59392C51.0851 3.92692 50.9886 3.4401 50.6065 2.86307C50.1187 2.62782 49.5848 2.65897 49.0515 2.72671C48.6229 3.02648 48.512 3.19711 48.3447 3.68125C48.3297 4.01911 48.3225 4.35319 48.3219 4.6911C48.3212 4.79359 48.3205 4.89607 48.3198 5.00167C48.3177 5.34083 48.3168 5.67998 48.316 6.01914C48.3152 6.25507 48.3144 6.49099 48.3135 6.72692C48.3121 7.22179 48.3112 7.71665 48.3107 8.21152C48.31 8.84476 48.3066 9.47796 48.3025 10.1112C48.2999 10.5987 48.2992 11.0861 48.299 11.5736C48.2985 11.807 48.2974 12.0404 48.2955 12.2738C48.2931 12.6008 48.2934 12.9278 48.2943 13.2548C48.293 13.3507 48.2917 13.4466 48.2904 13.5454C48.2958 14.172 48.4154 14.6086 48.7688 15.1358C49.2924 15.3042 49.7789 15.3315 50.3238 15.2722C50.6808 15.0956 50.8416 14.9964 50.9728 14.6291C51.046 14.2345 51.0463 13.8598 51.0444 13.459C51.0439 13.2946 51.0435 13.1302 51.043 12.9609C51.0418 12.7899 51.0406 12.6188 51.0394 12.4426C51.0388 12.2695 51.0381 12.0963 51.0375 11.9179C51.0358 11.4906 51.0335 11.0632 51.0306 10.6358C50.6574 10.6358 50.2842 10.6358 49.8997 10.6358C49.8997 9.7358 49.8997 8.8358 49.8997 7.90853C51.2525 7.90853 52.6053 7.90853 53.9992 7.90853C54.0122 8.87159 54.0234 9.83436 54.0302 10.7974C54.033 11.1245 54.0369 11.4516 54.0418 11.7786C54.0487 12.2509 54.0519 12.723 54.0544 13.1953C54.0573 13.3397 54.0602 13.484 54.0632 13.6328C54.0636 14.7832 53.8098 15.7671 53.1863 16.7551C52.1457 17.7032 50.9882 18.0537 49.5728 18.0506C49.4675 18.0504 49.3622 18.0501 49.2537 18.0499C48.0897 18.025 47.0652 17.7197 46.2243 16.9085C45.0511 15.5105 45.1716 13.8295 45.1784 12.131C45.1781 11.8791 45.1777 11.6272 45.1772 11.3752C45.1766 10.8493 45.1775 10.3233 45.1795 9.79734C45.1819 9.1258 45.1805 8.45432 45.1779 7.78277C45.1764 7.26322 45.1769 6.74369 45.178 6.22414C45.1783 5.97662 45.1779 5.7291 45.177 5.48158C45.167 2.29885 45.167 2.29885 46.3165 1.12444C47.9598 -0.382255 50.7173 -0.500957 52.5927 0.736119Z" fill="black"/>
<path id="Vector_4" d="M9.04835 0C10.0746 0 11.1009 0 12.1583 0C12.264 0.327129 12.3697 0.654258 12.4786 0.9913C12.5828 1.31314 12.6872 1.63494 12.7916 1.95673C12.8633 2.17793 12.9348 2.39916 13.0063 2.62044C13.1098 2.94113 13.2138 3.26168 13.3179 3.58221C13.349 3.67886 13.3801 3.77552 13.4121 3.8751C13.6762 4.68575 13.9767 5.4715 14.2787 6.27273C15.3283 3.16773 15.3283 3.16773 16.3991 0C17.3321 0 18.2651 0 19.2264 0C19.0673 0.920415 19.0673 0.920415 18.8985 1.39183C18.8612 1.49711 18.8238 1.60238 18.7854 1.71084C18.7249 1.87832 18.7249 1.87832 18.6631 2.04918C18.6 2.22631 18.6 2.22631 18.5357 2.40702C18.4014 2.78387 18.2661 3.16041 18.1308 3.53693C18.042 3.78522 17.9533 4.03354 17.8647 4.28187C17.8212 4.40341 17.7778 4.52495 17.7331 4.65017C17.6466 4.8926 17.5603 5.13509 17.4743 5.37765C17.2804 5.92379 17.0844 6.46878 16.8793 7.01108C16.8453 7.10314 16.8113 7.1952 16.7763 7.29005C16.6869 7.53213 16.5955 7.77353 16.5039 8.01486C16.2998 8.87146 16.5922 9.63714 16.8806 10.4467C16.9317 10.5934 16.9317 10.5934 16.9838 10.743C17.0944 11.06 17.2062 11.3766 17.318 11.6932C17.3946 11.9121 17.4711 12.1311 17.5476 12.3501C17.7021 12.7926 17.8571 13.2351 18.0124 13.6774C18.338 14.6058 18.6584 15.5359 18.979 16.4659C19.0828 16.7663 19.1866 17.0668 19.2904 17.3672C19.3626 17.576 19.4347 17.7848 19.5091 18C18.4361 18 17.3632 18 16.2578 18C15.4967 15.7294 14.7369 13.4586 13.996 11.1818C13.9476 11.322 13.8991 11.4621 13.8492 11.6065C13.5503 12.4717 13.2513 13.3369 12.9523 14.2021C12.9148 14.3108 12.8772 14.4194 12.8385 14.5314C12.7637 14.7479 12.6889 14.9643 12.614 15.1808C12.4498 15.6558 12.286 16.1308 12.1232 16.6063C12.0728 16.7533 12.0225 16.9004 11.9706 17.0518C11.9277 17.1775 11.8848 17.3031 11.8406 17.4326C11.7342 17.7273 11.7342 17.7273 11.5929 18C10.6599 18 9.72688 18 8.76562 18C9.171 16.7081 9.60827 15.4334 10.0771 14.1616C10.2409 13.7129 10.4045 13.2642 10.568 12.8155C10.6806 12.5086 10.7943 12.2022 10.909 11.8961C11.0767 11.4477 11.2399 10.9981 11.4023 10.5479C11.4542 10.4127 11.506 10.2774 11.5593 10.1381C11.8886 9.20912 11.8955 8.5707 11.5929 7.63636C11.5598 7.53022 11.5268 7.42408 11.4928 7.31473C11.3856 6.98666 11.2703 6.66229 11.1522 6.33771C11.11 6.21943 11.0678 6.10114 11.0244 5.97927C10.8908 5.60521 10.7559 5.23158 10.621 4.85795C10.5316 4.60869 10.4424 4.3594 10.3532 4.11009C10.1827 3.63371 10.0121 3.15737 9.84143 2.68106C9.8026 2.57261 9.76377 2.46416 9.72377 2.35242C9.65425 2.15839 9.58463 1.96439 9.51486 1.77045C9.43197 1.53953 9.35 1.30831 9.26812 1.07706C9.20303 0.894434 9.20303 0.894434 9.13663 0.708119C9.04835 0.409091 9.04835 0.409091 9.04835 0Z" fill="black"/>
<path id="Vector_5" d="M0 0C2.56571 0 5.13141 0 7.77487 0C7.77487 0.855 7.77487 1.71 7.77487 2.59091C6.1888 2.59091 4.60272 2.59091 2.96859 2.59091C2.96859 4.34591 2.96859 6.10091 2.96859 7.90909C4.1718 7.90369 4.1718 7.90369 5.37501 7.89681C5.59834 7.8963 5.59834 7.8963 5.82618 7.89577C6.05604 7.8947 6.05604 7.8947 6.29054 7.89361C6.64398 7.90909 6.64398 7.90909 6.78534 8.04545C6.79757 8.23851 6.80047 8.43213 6.79914 8.62553C6.79879 8.7304 6.79844 8.83526 6.79808 8.9433C6.79679 9.07733 6.7955 9.21135 6.79418 9.34943C6.79126 9.77412 6.78834 10.1988 6.78534 10.6364C5.52581 10.6364 4.26628 10.6364 2.96859 10.6364C2.96859 13.0664 2.96859 15.4964 2.96859 18C1.98895 18 1.00932 18 0 18C0 12.06 0 6.12 0 0Z" fill="black"/>
</g>
<defs>
<clipPath id="clip0_5936_21485">
<rect width="54" height="18" fill="white"/>
</clipPath>
</defs>
</svg>
