<svg width="72" height="18" viewBox="0 0 72 18" fill="none" xmlns="http://www.w3.org/2000/svg">
<g id="Simplification" clip-path="url(#clip0_5936_21579)">
<path id="Vector" d="M35.3594 0.5C41.7651 0.5 41.7651 0.5 43.0462 1.27273C43.915 2.50763 43.6637 4.15693 43.6708 5.60322C43.6792 5.90288 43.6876 6.20254 43.6963 6.51127C43.7117 8.98236 43.7117 8.98236 42.868 9.92466C42.3663 10.505 42.2715 10.6973 42.3164 11.4815C42.496 12.2802 42.7178 13.0497 42.9661 13.8295C43.1225 14.3593 43.2784 14.8892 43.4336 15.4193C43.5061 15.6519 43.5787 15.8846 43.6534 16.1243C43.8149 16.7273 43.8149 16.7273 43.8149 17.5C42.9693 17.5 42.1238 17.5 41.2526 17.5C40.4616 15.3132 39.9688 13.0687 39.459 10.803C39.0362 10.803 38.6135 10.803 38.1779 10.803C38.1779 13.013 38.1779 15.223 38.1779 17.5C37.2478 17.5 36.3177 17.5 35.3594 17.5C35.3594 11.89 35.3594 6.28 35.3594 0.5ZM38.1779 2.81818C38.1779 4.77318 38.1779 6.72818 38.1779 8.74242C38.9389 8.65742 39.6999 8.57242 40.4839 8.48485C40.7748 7.89996 40.7732 7.5723 40.7742 6.9233C40.7745 6.7181 40.7748 6.5129 40.7752 6.30149C40.7742 6.087 40.7732 5.87251 40.7722 5.65152C40.7732 5.43702 40.7742 5.22253 40.7752 5.00154C40.7749 4.79634 40.7745 4.59115 40.7742 4.37973C40.7739 4.19147 40.7736 4.00321 40.7733 3.80924C40.7689 3.30869 40.7689 3.30869 40.4839 2.81818C39.7229 2.81818 38.9619 2.81818 38.1779 2.81818Z" fill="black"/>
<path id="Vector_2" d="M21.3826 0.404305C21.7078 0.394842 21.7078 0.394842 22.0397 0.385188C23.101 0.380175 23.6848 0.410928 24.6105 0.973789C25.6461 2.12046 25.389 3.41494 25.3701 4.87968C24.44 4.87968 23.5099 4.87968 22.5516 4.87968C22.4671 4.28468 22.3825 3.68968 22.2954 3.07665C21.619 2.99165 20.9425 2.90665 20.2456 2.81908C20.2456 4.09408 20.2456 5.36908 20.2456 6.68271C20.5726 6.85969 20.8996 7.03666 21.2365 7.21899C21.6642 7.45333 22.0919 7.68777 22.5196 7.9223C22.8431 8.09686 22.8431 8.09686 23.1732 8.27495C23.3796 8.38867 23.586 8.5024 23.7987 8.61956C24.0845 8.77536 24.0845 8.77536 24.3761 8.9343C24.8577 9.25847 24.8577 9.25847 25.3701 10.0312C25.4815 10.9611 25.4532 11.8964 25.4502 12.8323C25.4543 13.0883 25.4585 13.3443 25.4627 13.6081C25.4643 15.9823 25.4643 15.9823 24.6014 16.9857C23.5138 17.7147 22.5816 17.5957 21.3025 17.5975C21.0723 17.6038 20.8421 17.6101 20.6049 17.6166C19.5106 17.6215 18.8771 17.6024 17.9215 17.028C16.8989 15.8752 17.1519 14.5846 17.1708 13.1221C18.1009 13.1221 19.0311 13.1221 19.9893 13.1221C20.0739 13.7171 20.1585 14.3121 20.2456 14.9251C20.922 15.0101 21.5985 15.0951 22.2954 15.1827C22.2954 13.8227 22.2954 12.4627 22.2954 11.0615C21.9684 10.9031 21.6414 10.7447 21.3045 10.5816C20.8767 10.3714 20.449 10.1611 20.0214 9.95071C19.8057 9.84661 19.59 9.74252 19.3678 9.63528C19.0581 9.48213 19.0581 9.48213 18.7422 9.32588C18.5517 9.23281 18.3612 9.13974 18.1648 9.04385C17.6833 8.74332 17.6833 8.74332 17.1708 7.97059C17.0594 7.04065 17.0878 6.10541 17.0908 5.16946C17.0866 4.91346 17.0825 4.65746 17.0783 4.39371C17.0767 1.98332 17.0767 1.98332 17.9395 1.01605C19.0612 0.340353 20.108 0.406247 21.3826 0.404305Z" fill="black"/>
<path id="Vector_3" d="M44.8438 0.5C47.5495 0.5 50.2553 0.5 53.043 0.5C53.2993 0.757576 53.2993 0.757576 53.3313 1.65909C53.2993 2.56061 53.2993 2.56061 53.043 2.81818C52.6429 2.84055 52.2417 2.84575 51.841 2.84334C51.599 2.84251 51.3571 2.84168 51.1078 2.84082C50.8533 2.83866 50.5988 2.8365 50.3366 2.83428C50.0812 2.83312 49.8257 2.83196 49.5624 2.83076C48.929 2.82771 48.2956 2.82309 47.6623 2.81818C47.6623 4.34818 47.6623 5.87818 47.6623 7.45455C48.4787 7.44658 48.4787 7.44658 49.3117 7.43845C49.8722 7.43298 50.433 7.43585 50.9932 7.45455C51.2494 7.71212 51.2494 7.71212 51.2745 8.18803C51.2661 8.71626 51.2578 9.2445 51.2494 9.77273C50.0657 9.77273 48.8819 9.77273 47.6623 9.77273C47.6623 11.5577 47.6623 13.3427 47.6623 15.1818C49.4215 15.1716 49.4215 15.1716 51.1808 15.1586C51.3987 15.158 51.6165 15.1573 51.841 15.1567C52.0651 15.1553 52.2891 15.154 52.52 15.1526C53.043 15.1818 53.043 15.1818 53.2993 15.4394C53.2993 16.1194 53.2993 16.7994 53.2993 17.5C50.5089 17.5 47.7186 17.5 44.8438 17.5C44.8438 11.89 44.8438 6.28 44.8438 0.5Z" fill="black"/>
<path id="Vector_4" d="M8.20312 0.5C9.04868 0.5 9.89423 0.5 10.7654 0.5C11.4437 2.18837 11.8822 3.87999 12.3028 5.65152C12.8101 3.95152 13.3174 2.25152 13.8401 0.5C14.6857 0.5 15.5312 0.5 16.4024 0.5C16.2541 1.15496 16.1045 1.80957 15.954 2.46402C15.9089 2.66245 15.8638 2.86088 15.8173 3.06532C15.5974 4.01351 15.3666 4.94786 15.0632 5.87287C14.9661 6.1717 14.869 6.47053 14.769 6.77841C14.6771 7.04071 14.5853 7.30302 14.4907 7.57327C14.152 9.80857 15.0616 12.159 15.6658 14.2964C15.8058 14.7956 15.9453 15.295 16.0841 15.7946C16.1453 16.0112 16.2064 16.2279 16.2694 16.4511C16.4024 16.9848 16.4024 16.9848 16.4024 17.5C15.5569 17.5 14.7113 17.5 13.8401 17.5C13.1797 15.6347 12.728 13.767 12.3028 11.8333C11.5418 14.6383 11.5418 14.6383 10.7654 17.5C9.91985 17.5 9.0743 17.5 8.20312 17.5C8.30711 17.0769 8.41119 16.6538 8.51572 16.2308C8.60718 15.8604 8.69821 15.49 8.78883 15.1194C9.01989 14.1826 9.26038 13.2517 9.53331 12.3263C9.58145 12.1594 9.62959 11.9924 9.67919 11.8203C9.8131 11.3599 9.95133 10.9008 10.0898 10.4418C10.4847 8.19871 9.73541 6.12675 9.08391 3.99337C8.91752 3.44117 8.75167 2.8888 8.58647 2.33623C8.51295 2.0947 8.43944 1.85317 8.36371 1.60432C8.20312 1.01515 8.20312 1.01515 8.20312 0.5Z" fill="black"/>
<path id="Vector_5" d="M54.3203 0.5C57.0261 0.5 59.7318 0.5 62.5196 0.5C62.5196 1.265 62.5196 2.03 62.5196 2.81818C60.7439 2.81818 58.9683 2.81818 57.1388 2.81818C57.1388 4.34818 57.1388 5.87818 57.1388 7.45455C58.238 7.45455 59.3373 7.45455 60.4698 7.45455C60.8198 8.15836 60.7589 8.73778 60.726 9.51515C60.4698 9.77273 60.4698 9.77273 59.7161 9.79788C58.857 9.7895 57.9979 9.78111 57.1388 9.77273C57.1388 11.5577 57.1388 13.3427 57.1388 15.1818C58.8138 15.1716 58.8138 15.1716 60.4887 15.1586C60.7999 15.1576 60.7999 15.1576 61.1174 15.1567C61.3307 15.1553 61.5441 15.154 61.7639 15.1526C62.2634 15.1818 62.2634 15.1818 62.5196 15.4394C62.5196 16.1194 62.5196 16.7994 62.5196 17.5C59.8138 17.5 57.1081 17.5 54.3203 17.5C54.3203 11.89 54.3203 6.28 54.3203 0.5Z" fill="black"/>
<path id="Vector_6" d="M0 0.5C2.28299 0.5 4.56598 0.5 6.91815 0.5C7.4306 1.5303 7.4306 1.5303 7.4306 2.81818C5.90861 2.81818 4.38662 2.81818 2.81851 2.81818C2.81851 4.34818 2.81851 5.87818 2.81851 7.45455C3.91772 7.45455 5.01694 7.45455 6.14947 7.45455C6.14947 8.21955 6.14947 8.98455 6.14947 9.77273C5.05025 9.77273 3.95103 9.77273 2.81851 9.77273C2.82148 10.309 2.82445 10.8452 2.82751 11.3977C2.82929 11.9151 2.83107 12.4325 2.83258 12.95C2.83387 13.3105 2.83562 13.6711 2.83784 14.0316C2.84093 14.5488 2.84226 15.066 2.84353 15.5833C2.84487 15.8949 2.84621 16.2065 2.84759 16.5275C2.81851 17.2424 2.81851 17.2424 2.56228 17.5C1.71673 17.5 0.871174 17.5 0 17.5C0 11.89 0 6.28 0 0.5Z" fill="black"/>
<path id="Vector_7" d="M26.9138 0.470703C27.2594 0.470744 27.605 0.47221 27.9506 0.474791C28.2231 0.475337 28.2231 0.475337 28.501 0.475895C29.0832 0.477341 29.6654 0.480575 30.2477 0.483846C30.6415 0.485137 31.0354 0.486313 31.4292 0.487368C32.3966 0.490213 33.3639 0.494663 34.3313 0.499945C34.3313 1.26494 34.3313 2.02994 34.3313 2.81813C33.4857 2.81813 32.6402 2.81813 31.769 2.81813C31.769 7.66313 31.769 12.5081 31.769 17.4999C30.7544 17.4999 29.7397 17.4999 28.6943 17.4999C28.6943 12.6549 28.6943 7.80994 28.6943 2.81813C27.8487 2.81813 27.0032 2.81813 26.132 2.81813C25.8758 2.56055 25.8758 2.56055 25.8438 1.65904C25.8846 0.509199 25.8846 0.509199 26.9138 0.470703Z" fill="black"/>
<path id="Vector_8" d="M63.5469 0.5C66.3372 0.5 69.1275 0.5 72.0024 0.5C72.0024 1.18 72.0024 1.86 72.0024 2.56061C71.9178 2.64561 71.8333 2.73061 71.7462 2.81818C70.9006 2.81818 70.0551 2.81818 69.1839 2.81818C69.1839 7.66318 69.1839 12.5082 69.1839 17.5C68.2538 17.5 67.3237 17.5 66.3654 17.5C66.3654 12.655 66.3654 7.81 66.3654 2.81818C65.5198 2.81818 64.6743 2.81818 63.8031 2.81818C63.7185 2.73318 63.634 2.64818 63.5469 2.56061C63.5469 1.88061 63.5469 1.20061 63.5469 0.5Z" fill="black"/>
</g>
<defs>
<clipPath id="clip0_5936_21579">
<rect width="72" height="17" fill="white" transform="translate(0 0.5)"/>
</clipPath>
</defs>
</svg>
