<svg width="84" height="13" viewBox="0 0 84 13" fill="none" xmlns="http://www.w3.org/2000/svg">
<g clip-path="url(#clip0_5634_66747)">
<path d="M20.3763 5.51688L20.2399 6.21742H20.2162C20.0431 5.8973 19.7781 5.63599 19.4552 5.46695C19.1323 5.29792 18.7661 5.22885 18.4036 5.26859C17.415 5.3073 16.4702 5.68632 15.7302 6.3412C14.9901 6.99608 14.5004 7.88637 14.3442 8.86068C13.9819 10.782 14.9371 12.4764 17.0638 12.4764C17.4735 12.4916 17.8812 12.4119 18.2548 12.2435C18.6285 12.0752 18.9579 11.8228 19.2173 11.5062H19.241L19.1046 12.2296H21.098L22.3444 5.49471H20.3763V5.51688ZM19.739 8.86068C19.6525 9.33679 19.4052 9.76905 19.0383 10.0856C18.6713 10.4022 18.2068 10.5841 17.7219 10.6009C17.5109 10.6066 17.3016 10.5634 17.1102 10.4748C16.9188 10.3862 16.7506 10.2546 16.6188 10.0903C16.487 9.92599 16.3951 9.73346 16.3504 9.52781C16.3058 9.32216 16.3095 9.10899 16.3613 8.90502C16.442 8.43051 16.6844 7.99827 17.0476 7.68124C17.4107 7.36422 17.8724 7.1818 18.3547 7.16476C18.5682 7.15301 18.7815 7.19186 18.9771 7.27813C19.1726 7.3644 19.3449 7.49563 19.4798 7.66108C19.6147 7.82653 19.7084 8.0215 19.7532 8.23001C19.798 8.43852 19.7926 8.65464 19.7375 8.86068H19.739ZM23.5012 5.51614H25.3819L25.2456 6.21668H25.2671C25.4712 5.90956 25.7519 5.66062 26.0817 5.49428C26.4114 5.32795 26.7788 5.24992 27.1478 5.26785L26.7855 7.30295C25.834 7.3266 25.1241 7.50617 24.9729 8.54589L24.2704 12.2533H22.2162L23.5012 5.51614ZM28.5099 2.87214H30.5507L29.5984 7.95915H29.6436L31.9772 5.52057H34.3566L31.2517 8.47642L33.042 12.251H30.7507L29.4361 8.99961H29.4206L28.8085 12.251H26.7929L28.5099 2.87214ZM37.6061 5.26785C36.5988 5.32426 35.6388 5.71196 34.876 6.37032C34.1132 7.02868 33.5907 7.92057 33.3903 8.9065C33.2863 9.34034 33.2841 9.79227 33.3839 10.2271C33.4836 10.6619 33.6827 11.0679 33.9656 11.4135C34.2485 11.759 34.6076 12.0347 35.0149 12.2192C35.4221 12.4037 35.8666 12.492 36.3137 12.4772C37.0387 12.4739 37.7474 12.2619 38.3545 11.8668C39.0447 11.4305 39.6263 10.8432 40.0552 10.1494H37.9929C37.8279 10.3496 37.6201 10.5103 37.3846 10.6198C37.1492 10.7292 36.8921 10.7847 36.6323 10.782C36.4577 10.8004 36.2812 10.7809 36.1148 10.7249C35.9484 10.669 35.7961 10.5778 35.6684 10.4576C35.5406 10.3374 35.4404 10.1912 35.3747 10.0288C35.3089 9.86643 35.2791 9.6918 35.2874 9.51688H40.3494C40.4166 9.3509 40.4624 9.17709 40.4857 8.99961C40.8711 6.92017 39.6706 5.27081 37.6068 5.27081L37.6061 5.26785ZM35.5675 8.13945C35.7124 7.79288 35.9586 7.49779 36.2739 7.29248C36.5892 7.08717 36.9591 6.98114 37.3356 6.98815C37.4994 6.96922 37.6653 6.98476 37.8227 7.03377C37.9801 7.08277 38.1254 7.16415 38.2493 7.27265C38.3732 7.38115 38.4729 7.51435 38.5419 7.66366C38.611 7.81296 38.6479 7.97505 38.6502 8.13945H35.5675ZM11.3549 12.251H13.372V2.86622H11.6491L8.06841 8.19857H8.0447V2.86475H6.32253L-0.00219727 12.251H2.44322L6.00018 6.91869H6.0239V12.251H7.76903L11.3045 6.91869H11.3497L11.3549 12.251ZM45.6203 5.51614H44.3517L44.7141 3.52833H42.946L42.8096 4.29685C42.77 4.64681 42.5978 4.96846 42.3282 5.19595C42.0586 5.42344 41.712 5.53957 41.3594 5.52057H41.3357L41.0193 7.03471H42.0145L41.0415 12.2377H43.0586L44.0331 7.03175H45.3247L45.6203 5.51614Z" fill="black"/>
<path d="M76.7372 9.70377C76.3983 10.5049 75.8359 11.1923 75.1169 11.6841C74.3978 12.176 73.5523 12.4517 72.6807 12.4786C72.2269 12.5014 71.7739 12.4174 71.3587 12.2332C70.9435 12.049 70.5776 11.7699 70.2906 11.4184C70.0037 11.0669 69.8038 10.653 69.7072 10.2102C69.6106 9.76736 69.6199 9.30806 69.7344 8.86948C69.9271 7.88051 70.4519 6.98648 71.2222 6.33463C71.9925 5.68278 72.9625 5.31198 73.9724 5.2833C74.3615 5.25772 74.7518 5.31204 75.1191 5.4429C75.4863 5.57375 75.8227 5.77836 76.1075 6.04406C76.3923 6.30976 76.6194 6.6309 76.7747 6.98762C76.9301 7.34434 77.0103 7.72905 77.0106 8.11796H74.9698C74.9114 7.82803 74.7467 7.57025 74.5078 7.39504C74.2689 7.21983 73.9731 7.1398 73.6782 7.17061C73.2079 7.17906 72.7559 7.35397 72.4029 7.66409C72.05 7.97421 71.8191 8.39935 71.7515 8.86357C71.6839 9.06359 71.6662 9.27702 71.6999 9.4854C71.7335 9.69378 71.8176 9.89085 71.9448 10.0596C72.0719 10.2283 72.2384 10.3636 72.4298 10.4538C72.6211 10.544 72.8317 10.5863 73.0431 10.5772C73.3696 10.5787 73.691 10.4964 73.9764 10.3385C74.2619 10.1805 74.5019 9.95199 74.6734 9.67495H76.7357L76.7372 9.70377ZM59.9683 0.5L56.049 2.89128H57.1605L53.6036 8.21181H53.5583V2.89128H51.8095L48.2525 8.21181H48.2288V2.89128H46.1858V12.2643H47.9539L51.5109 6.94375H51.5346V12.2643H53.2797L59.5785 2.89498H60.5767L59.9683 0.5ZM63.8217 12.2495H61.829L61.9654 11.5275H61.9417C61.6804 11.8417 61.3507 12.0924 60.9777 12.2605C60.6047 12.4287 60.1981 12.5098 59.789 12.4978C57.6363 12.4978 56.707 10.8048 57.0694 8.88869C57.2297 7.91729 57.7204 7.03052 58.4591 6.37744C59.1978 5.72436 60.1395 5.34478 61.1258 5.30251C61.4883 5.26258 61.8544 5.3314 62.1775 5.50016C62.5005 5.66893 62.7657 5.92996 62.9391 6.24986H62.9628L63.0992 5.5508H65.0896L63.8217 12.2495ZM60.4211 10.6068C60.9042 10.5858 61.3661 10.403 61.7321 10.0879C62.0982 9.77279 62.3469 9.34377 62.4382 8.87022C62.4948 8.66423 62.5012 8.44774 62.457 8.23876C62.4128 8.02977 62.3191 7.83435 62.1838 7.66875C62.0486 7.50314 61.8756 7.37214 61.6793 7.28666C61.4831 7.20117 61.2691 7.16366 61.0554 7.17726C60.5734 7.19358 60.1119 7.37528 59.7487 7.69167C59.3855 8.00805 59.143 8.43974 59.062 8.91382C59.0064 9.11778 58.9998 9.33198 59.0429 9.53895C59.086 9.74592 59.1775 9.93981 59.31 10.1048C59.4424 10.2699 59.6121 10.4013 59.8052 10.4886C59.9983 10.5758 60.2093 10.6163 60.4211 10.6068ZM70.142 5.53159H68.8726L69.2349 3.54748H67.4676L67.3312 4.31452C67.2904 4.66361 67.1176 4.98402 66.8479 5.21034C66.5783 5.43666 66.2322 5.55182 65.8803 5.53233H65.8566L65.5601 7.04425H66.5568L65.5824 12.2406H67.6017L68.5762 7.04425H69.8678L70.142 5.53159ZM78.6401 2.89276H80.6572L80.0452 6.23065H80.0689C80.2741 5.9548 80.5377 5.72732 80.8408 5.56432C81.144 5.40131 81.4794 5.30677 81.8233 5.28738C82.1672 5.26799 82.5112 5.32423 82.8309 5.45212C83.1506 5.58001 83.4381 5.77641 83.6733 6.02743C84.1038 6.68068 84.0586 7.26815 83.8311 8.48596L83.1286 12.2303H81.1115L81.7918 8.57685C81.8599 8.26206 82.0408 7.15583 80.9766 7.15583C80.6164 7.16328 80.2727 7.30765 80.0157 7.55942C79.7586 7.81119 79.6078 8.15134 79.5939 8.51035L78.8914 12.2318H76.898L78.6401 2.89276Z" fill="black"/>
</g>
<defs>
<clipPath id="clip0_5634_66747">
<rect width="84" height="12" fill="white" transform="translate(0 0.5)"/>
</clipPath>
</defs>
</svg>
