<svg width="86" height="31" viewBox="0 0 86 31" fill="none" xmlns="http://www.w3.org/2000/svg">
<g id="Layer_1" clip-path="url(#clip0_5936_21817)">
<path id="Vector" d="M35.3379 0.0488281V6.89777C36.7528 5.5376 38.3473 5.17809 40.0886 5.59943C41.8532 6.02763 43.1283 7.55725 43.2005 9.52194C43.3031 12.3156 43.2378 15.1138 43.2681 17.9097C43.2728 18.4134 43.0723 18.5966 42.5851 18.544C42.5478 18.5394 42.5082 18.544 42.4686 18.544C41.2751 18.4913 39.7576 19.0111 38.979 18.3447C38.2377 17.7104 38.7948 16.2083 38.7529 15.0886C38.7109 13.9185 38.7762 12.7438 38.7296 11.5736C38.6736 10.1768 38.1328 9.56545 37.0652 9.56316C35.9929 9.56087 35.3402 10.3165 35.3285 11.6538C35.3099 13.6574 35.2959 15.661 35.3402 17.6624C35.3542 18.3379 35.2003 18.6287 34.4521 18.5577C33.2306 18.4386 31.6291 19.05 30.8855 18.3012C30.2958 17.7059 30.7154 16.1488 30.7107 15.0176C30.699 10.0303 30.6967 5.0407 30.6897 0.0534078H35.3379V0.0488281Z" fill="black"/>
<path id="Vector_2" d="M85.9992 0.275659C84.871 2.01595 84.3138 4.00583 83.4583 5.86747C82.7031 7.50472 82.0154 9.17402 81.3534 10.8502C81.1296 11.4158 80.8778 11.6654 80.2112 11.6379C78.7496 11.5761 77.2833 11.6196 75.6562 11.6196C77.2693 7.70393 78.8475 3.87759 80.4233 0.0512541C82.1273 0.0512541 83.8313 0.0443845 85.5353 0.0627033C85.6822 0.0627033 86.0365 -0.170861 85.9992 0.277949V0.275659Z" fill="black"/>
<path id="Vector_3" d="M29.0824 9.01114C29.08 7.96009 29.4437 6.54726 28.8959 5.9519C28.2572 5.26036 26.7746 5.86488 25.6767 5.71604C24.8142 5.59697 24.5251 5.94503 24.6417 6.78998C21.6812 4.39709 18.2709 5.61071 16.6601 7.42198C14.2545 10.124 14.2871 14.5045 16.7813 17.0416C18.9702 19.2651 22.0612 19.4941 24.7885 17.3668C24.3503 18.5896 24.9983 18.5644 25.679 18.5484C26.4529 18.5278 27.2338 18.4888 28.0008 18.5575C28.8493 18.6331 29.1313 18.3995 29.1103 17.5156C29.0474 14.6808 29.094 11.846 29.0824 9.01114ZM22.0099 14.8067C20.4038 14.7953 19.2639 13.6572 19.2919 12.0933C19.3199 10.6255 20.5157 9.47369 22.0216 9.46453C23.5694 9.45766 24.8375 10.669 24.8352 12.1574C24.8328 13.6321 23.5694 14.8159 22.0099 14.8067Z" fill="black"/>
<path id="Vector_4" d="M3.45587 23.3492C4.03631 22.0074 4.49786 20.8144 5.06431 19.6717C5.39998 18.9962 5.37667 18.4192 5.08063 17.746C3.48151 14.1234 1.91038 10.4894 0.341569 6.85544C0.194712 6.51654 -0.0477191 6.19825 0.00822646 5.73112C1.4395 5.73112 2.86844 5.76318 4.29273 5.7151C4.83586 5.69678 4.91745 6.01965 5.05265 6.35854C5.83822 8.31637 6.62146 10.2765 7.40703 12.2343C7.52591 12.532 7.66111 12.8228 7.8779 13.3266C8.79634 11.0459 9.68914 8.97813 10.4561 6.8646C10.7801 5.97156 11.2207 5.61434 12.195 5.71052C13.0762 5.79982 13.976 5.77234 14.8641 5.71739C15.7196 5.66472 15.6916 5.90515 15.3979 6.58982C13.1321 11.8542 10.9036 17.1323 8.69844 22.4218C8.41871 23.0928 8.118 23.434 7.29747 23.3721C6.07366 23.2828 4.83586 23.3492 3.4582 23.3492H3.45587Z" fill="black"/>
<path id="Vector_5" d="M66.3369 5.46121C62.2948 5.42916 59.2924 8.18385 59.2505 11.9598C59.2085 15.8961 62.092 18.8271 66.0525 18.8683C70.1086 18.9095 73.1832 16.0838 73.2159 12.285C73.2485 8.3739 70.3463 5.49327 66.3369 5.46121ZM66.2367 14.8015C64.7704 14.8084 63.528 13.581 63.535 12.1384C63.5419 10.6592 64.7191 9.54402 66.2623 9.55547C67.8055 9.56463 68.8731 10.6683 68.8451 12.2231C68.8195 13.6932 67.7029 14.7969 66.2367 14.8015Z" fill="black"/>
<path id="Vector_6" d="M51.471 5.46125C47.3707 5.42691 44.4055 8.18618 44.3752 12.0629C44.3449 15.9213 47.2424 18.8248 51.1633 18.8683C55.2217 18.9118 58.308 16.0839 58.336 12.2965C58.3663 8.37623 55.4711 5.4956 51.471 5.46125ZM51.3335 14.8016C49.8696 14.7924 48.6108 13.5353 48.6457 12.1201C48.683 10.6684 49.8159 9.56925 51.2892 9.55551C52.8743 9.53948 53.9513 10.5837 53.9559 12.1362C53.9629 13.6841 52.8533 14.813 51.3335 14.8016Z" fill="black"/>
<path id="Vector_7" d="M57.4716 29.6379C57.411 28.8113 57.4576 27.9801 57.4576 27.1511C57.4576 26.1711 57.4343 25.191 57.4669 24.211C57.4856 23.6614 57.3457 23.2652 56.7187 23.4416C56.0986 23.6133 55.369 22.9538 54.7629 23.8286C54.6067 24.0552 53.5554 23.1966 52.7885 23.2172C52.5227 23.224 52.25 23.2538 51.9913 23.3156C50.5786 23.6499 49.4947 24.7972 49.3082 26.2283C49.0914 27.8999 49.4434 29.3906 50.9912 30.3821C52.0425 31.053 53.1265 31.1217 54.2081 30.421C54.3969 30.2997 54.6021 30.2035 54.8002 30.0959C55.0706 31.1171 55.9098 30.5149 56.4856 30.6409C57.3294 30.8286 57.5275 30.389 57.4716 29.6379ZM53.2943 28.5617C52.3829 28.4678 51.8211 27.9594 51.7885 27.0321C51.7581 26.1963 52.5461 25.475 53.4155 25.491C54.341 25.507 54.9704 26.1665 54.9424 27.0916C54.9167 27.9984 54.2174 28.6556 53.2943 28.5617Z" fill="black"/>
<path id="Vector_8" d="M41.1342 27.0783C41.1342 26.3616 41.0922 25.6403 41.1481 24.9259C41.1878 24.4335 40.8474 23.5749 41.3859 23.5199C42.1295 23.4443 43.1039 22.8971 43.7473 23.8611C43.9664 24.1885 44.1133 23.8611 44.2718 23.7695C46.3954 22.5467 48.2789 23.5268 48.3535 25.922C48.3931 27.2043 48.3278 28.4912 48.3814 29.7735C48.4094 30.4604 48.2159 30.7604 47.4816 30.6574C47.1786 30.6139 46.8593 30.6207 46.5539 30.6574C45.9478 30.7261 45.7333 30.5017 45.759 29.8994C45.8033 28.8804 45.7683 27.8615 45.7706 26.8402C45.7706 26.1624 45.5375 25.5808 44.7706 25.5693C43.9967 25.5579 43.7473 26.1532 43.7333 26.8173C43.7123 27.8363 43.7007 28.8575 43.7356 29.8765C43.7566 30.4467 43.6028 30.7306 42.9664 30.6574C42.6237 30.6184 42.2671 30.6207 41.9221 30.6574C41.3323 30.7169 41.0875 30.5291 41.1178 29.9109C41.1668 28.9697 41.1295 28.024 41.1295 27.0783H41.1342Z" fill="black"/>
<path id="Vector_9" d="M76.403 27.6863C77.023 27.6726 77.6408 27.6817 78.2585 27.6817C78.9159 27.6817 79.5756 27.6542 80.2306 27.6909C80.7574 27.7184 80.8646 27.4939 80.8786 27.0268C80.9299 25.1904 79.6408 23.6333 77.7107 23.2623C75.9065 22.9165 74.0067 23.9813 73.3703 25.6987C72.6896 27.5283 73.4262 29.5892 75.0486 30.4043C76.8249 31.2997 79.2096 30.9264 80.2003 29.5983C80.3238 29.4335 80.6059 29.1724 80.2702 29.0717C79.4893 28.8358 78.818 28 77.8366 28.6686C77.2841 29.0465 76.6501 28.948 76.1139 28.5267C75.9088 28.3641 75.678 28.158 75.7992 27.858C75.9065 27.5878 76.1932 27.6909 76.403 27.6863ZM76.9485 25.1583C77.5219 25.1629 78.1909 25.2636 78.1793 25.8636C78.1629 26.6811 77.8203 26.4452 77.044 26.491C76.3843 26.5093 75.8692 26.6078 75.8202 25.8567C75.7899 25.3713 76.3913 25.1514 76.9485 25.1583Z" fill="black"/>
<path id="Vector_10" d="M58.7594 27.0483C58.7594 26.1048 58.799 25.1614 58.7454 24.2226C58.7081 23.5539 58.9925 23.2792 59.6056 23.4417C60.2093 23.5997 61.0788 22.9082 61.4332 23.973C61.4728 24.0943 61.7339 23.8448 61.8877 23.7532C63.8132 22.6105 65.7596 23.444 65.9531 25.5873C66.0883 27.0826 65.9834 28.6008 65.9997 30.1075C66.0044 30.4693 65.9111 30.6937 65.4869 30.6548C65.333 30.641 65.1792 30.6548 65.023 30.6548C63.9305 30.667 63.3843 30.1289 63.3843 29.0404C63.3843 28.3626 63.3959 27.6825 63.3796 27.0047C63.3633 26.3453 63.312 25.6011 62.4378 25.5805C61.5357 25.5599 61.3469 26.2376 61.3632 27.0002C61.3819 27.9413 61.3352 28.887 61.3795 29.8258C61.4098 30.4418 61.249 30.7487 60.5567 30.6639C60.1767 30.6181 59.7828 30.6319 59.4005 30.6616C58.876 30.7029 58.7431 30.4578 58.7524 29.993C58.7757 29.0129 58.7594 28.0329 58.7594 27.0528V27.0483Z" fill="black"/>
<path id="Vector_11" d="M31.7925 28.0282C31.7925 27.4626 31.7855 26.8947 31.7948 26.3291C31.8018 25.8597 31.8461 25.4338 31.1164 25.4407C30.4637 25.4452 30.7295 24.8682 30.7621 24.5774C30.8041 24.195 30.3915 23.5057 31.0955 23.4645C31.9043 23.4164 31.7715 22.9402 31.8391 22.4776C32.1072 20.6022 33.9254 19.4413 35.7366 19.9336C36.7693 20.2152 36.1562 20.98 36.2867 21.5182C36.4266 22.0975 36 22.086 35.5851 22.0517C35.2191 22.0219 34.8974 22.1364 34.6503 22.4135C34.4639 22.6219 34.3683 22.8669 34.4196 23.1462C34.4942 23.5447 34.8298 23.4004 35.0676 23.4187C36.1446 23.5035 36.5432 24.0919 36.2378 25.127C36.07 25.7017 35.5991 25.4704 35.2867 25.443C34.5524 25.3788 34.3543 25.6513 34.3869 26.3383C34.4405 27.5061 34.366 28.6808 34.4149 29.8486C34.4429 30.5012 34.2121 30.7325 33.5641 30.6547C33.2587 30.618 32.9417 30.6203 32.6363 30.6547C31.9883 30.7279 31.7272 30.4921 31.7808 29.8372C31.8298 29.2372 31.7925 28.6304 31.7925 28.0259V28.0282Z" fill="black"/>
<path id="Vector_12" d="M72.5204 25.8063C71.476 25.449 70.4853 25.259 69.7557 26.2253C69.3478 26.7657 69.3641 27.3885 69.8 27.9061C70.5413 28.7876 71.49 28.6251 72.4807 28.2381C72.497 28.4716 72.5157 28.6525 72.5204 28.8312C72.5553 30.6607 71.8583 31.3134 70.0424 30.8554C68.0983 30.3631 66.5528 29.154 66.9328 26.3192C67.1892 24.4026 69.0447 23.0401 71.1031 23.2119C72.0541 23.292 72.7488 23.5737 72.532 24.7209C72.4714 25.0483 72.5227 25.3941 72.5227 25.8063H72.5204Z" fill="black"/>
<path id="Vector_13" d="M79.9453 15.7157C79.9593 17.4079 78.6235 18.7521 76.9102 18.7681C75.2575 18.7818 73.9498 17.5545 73.9148 15.9562C73.8775 14.2296 75.2738 12.8237 77.0081 12.842C78.6539 12.8603 79.9289 14.1083 79.9429 15.718L79.9453 15.7157Z" fill="black"/>
<path id="Vector_14" d="M37.2289 26.9325C37.2289 26.3302 37.2289 25.728 37.2289 25.1258C37.2289 23.3717 37.6368 23.0741 39.4364 23.4107C39.8723 23.4931 39.8933 23.7175 39.8933 24.0335C39.8933 26.028 39.8816 28.0224 39.9003 30.0169C39.905 30.5161 39.7045 30.6329 39.222 30.6626C37.2266 30.7909 37.2266 30.8092 37.2266 28.8513C37.2266 28.2125 37.2266 27.5713 37.2266 26.9325H37.2289Z" fill="black"/>
<path id="Vector_15" d="M40.0165 21.2757C39.9886 22.068 39.2823 22.7137 38.492 22.6679C37.6808 22.6221 37.0584 21.9306 37.14 21.12C37.2239 20.2728 37.7577 19.8354 38.6016 19.8056C39.4175 19.7759 40.0445 20.4628 40.0165 21.2757Z" fill="black"/>
</g>
<defs>
<clipPath id="clip0_5936_21817">
<rect width="86" height="31" fill="white"/>
</clipPath>
</defs>
</svg>
